<svg xmlns="http://www.w3.org/2000/svg" width="16" height="16" viewBox="0 0 16 16">
    <g fill="none" fill-rule="evenodd">
        <g fill="#979797" fill-rule="nonzero">
            <g>
                <g>
                    <path d="M8 0C3.582 0 0 3.582 0 8s3.582 8 8 8 8-3.582 8-8-3.582-8-8-8zm-.924 11.453V7.791c0-.51.413-.925.924-.925.51 0 .924.414.924.925v3.662c0 .51-.413.925-.924.925-.51 0-.924-.414-.924-.925zM8 5.858c-.45 0-.855-.27-1.027-.686-.172-.415-.076-.893.241-1.211.318-.318.796-.413 1.211-.24.415.171.686.576.686 1.026 0 .613-.497 1.11-1.111 1.11z" transform="translate(-491.000000, -2022.000000) translate(155.000000, 2006.000000) translate(336.000000, 16.000000)"/>
                </g>
            </g>
        </g>
    </g>
</svg>
