<?xml version="1.0" encoding="UTF-8"?>
<svg width="32px" height="40px" viewBox="0 0 32 40" version="1.1" xmlns="http://www.w3.org/2000/svg" xmlns:xlink="http://www.w3.org/1999/xlink">
    <!-- Generator: Sketch 62 (91390) - https://sketch.com -->
    <title>Location icon</title>
    <desc>Created with Sketch.</desc>
    <g id="Location-icon" stroke="none" stroke-width="1" fill="none" fill-rule="evenodd">
        <g id="Icon/location" stroke="#979797" stroke-width="2">
            <path d="M31,15.6521739 C31,21.142785 25.8942068,28.767832 15.9992351,38.5940048 C6.10515545,28.7668795 1,21.1424421 1,15.6521739 C1,11.6085572 2.67716251,7.948794 5.38558566,5.29924962 C8.10205118,2.6418377 11.8553074,1 16,1 C20.1446926,1 23.8979488,2.6418377 26.6144143,5.29924962 C29.3228375,7.948794 31,11.6085572 31,15.6521739 Z M24,15 C24,12.790861 23.1045695,10.790861 21.6568542,9.34314575 C20.209139,7.8954305 18.209139,7 16,7 C13.790861,7 11.790861,7.8954305 10.3431458,9.34314575 C8.8954305,10.790861 8,12.790861 8,15 C8,17.209139 8.8954305,19.209139 10.3431458,20.6568542 C11.790861,22.1045695 13.790861,23 16,23 C18.209139,23 20.209139,22.1045695 21.6568542,20.6568542 C23.1045695,19.209139 24,17.209139 24,15 Z" id="Combined-Shape"></path>
        </g>
    </g>
</svg>