<svg width="52" height="52" viewBox="0 0 52 52" fill="none" xmlns="http://www.w3.org/2000/svg">
<rect width="52" height="52" rx="26" fill="#F8F8F8"/>
<path d="M27.6426 14H31.4272L39.1036 28.6572" stroke="black" stroke-width="1.3" stroke-linecap="round"/>
<path d="M45.1004 25.9925C45.1004 25.9925 41.7124 24.0267 38.0242 25.4564C34.336 26.886 33.1666 32.0089 33.1666 32.0089H24.2908C24.2908 32.0089 22.0373 31.0535 22.4144 23.3555" stroke="black" stroke-width="1.3" stroke-linecap="round"/>
<path d="M24.2908 32.0058H18.8935L6 30.1294C6 30.1294 6.73835 23.7502 14.8045 22.5586" stroke="black" stroke-width="1.3" stroke-linecap="round"/>
<path d="M33.1665 32.0059C33.1665 32.0059 33.0463 20.777 33.1665 20.1815C33.2863 19.5857 34.0934 19.0664 34.0934 19.0664" stroke="black" stroke-width="1.3" stroke-linecap="round"/>
<path fill-rule="evenodd" clip-rule="evenodd" d="M22.913 23.3541H16.5592C15.2739 23.3541 14.2222 22.3094 14.2222 21.0327C14.2222 19.7557 15.2739 18.7109 16.5592 18.7109H22.913C24.1986 18.7109 25.2504 19.7557 25.2504 21.0327C25.2504 22.3094 24.1986 23.3541 22.913 23.3541Z" stroke="black" stroke-width="1.3" stroke-linecap="round"/>
<path fill-rule="evenodd" clip-rule="evenodd" d="M46.0001 32.8741C46.0001 35.4728 43.8789 37.5798 41.2627 37.5798C38.6461 37.5798 36.5249 35.4728 36.5249 32.8741C36.5249 30.2749 38.6461 28.168 41.2627 28.168C43.8789 28.168 46.0001 30.2749 46.0001 32.8741Z" stroke="black" stroke-width="1.3" stroke-linecap="round"/>
<path fill-rule="evenodd" clip-rule="evenodd" d="M36.9473 19.2607L34.2504 19.3658C34.0932 19.0673 33.6031 18.3135 33.113 17.2056C33.113 15.6097 34.3195 14.7891 35.9265 14.7891H36.8782C37.5263 14.7891 38.052 15.3112 38.052 15.955V18.1634C38.052 18.7693 37.5572 19.2607 36.9473 19.2607Z" stroke="black" stroke-width="1.3" stroke-linecap="round"/>
<path d="M18.2118 31.9478C18.2755 32.2559 18.309 32.5751 18.309 32.9021C18.309 35.5173 16.1741 37.6379 13.5413 37.6379C10.9081 37.6379 8.77368 35.5173 8.77368 32.9021C8.77368 32.0751 8.9867 31.298 9.36163 30.6211" stroke="black" stroke-width="1.3" stroke-linecap="round"/>
<path d="M17.2383 24.3242L15.1453 27.8119L16.5561 27.9252L16.351 30.4389L18.4671 27.1553L17.0109 27.0191L17.2383 24.3242Z" fill="black"/>
<mask id="mask0_7333_46526" style="mask-type:alpha" maskUnits="userSpaceOnUse" x="15" y="24" width="4" height="7">
<path fill-rule="evenodd" clip-rule="evenodd" d="M15.1453 27.8856L16.5561 27.9999L16.3514 30.527L18.4671 27.2255L17.0109 27.0885L17.2383 24.3789L15.1453 27.8856Z" fill="white"/>
</mask>
<g mask="url(#mask0_7333_46526)">
<path d="M-76.2283 369.572H182.844V-90.418H-76.2283V369.572Z" fill="black"/>
</g>
<mask id="mask1_7333_46526" style="mask-type:alpha" maskUnits="userSpaceOnUse" x="15" y="24" width="4" height="7">
<path fill-rule="evenodd" clip-rule="evenodd" d="M15.1453 27.8856L16.5561 27.9999L16.3514 30.527L18.4671 27.2255L17.0109 27.0885L17.2383 24.3789L15.1453 27.8856Z" fill="white"/>
</mask>
<g mask="url(#mask1_7333_46526)">
<path d="M13.3462 32.3238H20.2663V22.582H13.3462V32.3238Z" fill="black"/>
</g>
</svg>
